# xmcd CD database file
#
# Track frame offsets:
#	150
#	20369
#	46649
#	70099
#	90307
#	116587
#	151090
#
# Disc length: 4440 seconds
#
# Revision: 0
# Processed by: cddbd v1.5.1PL0 Copyright (c) Steve Scherf et al.
# Submitted via: CDex 1.51
#
DISCID=42115607
DTITLE=エイジアエイジ - スーパーヒーロー/上のほうへ
DYEAR=2005
DGENRE=JPop
TTITLE0=スーパーヒーロー
TTITLE1=上のほうへ
TTITLE2=Where shall we meet?
TTITLE3=スーパーヒーロー（instrumental）
TTITLE4=上のほうへ（instrumental）
TTITLE5=Where shall we meet?（instrumental）
TTITLE6=CCCDにする意味がわかんねｗ
EXTD=YEAR: 2005
EXTT0=
EXTT1=
EXTT2=
EXTT3=
EXTT4=
EXTT5=
EXTT6=
PLAYORDER=
